<svg width="32" height="32" viewBox="0 0 32 32" fill="none" xmlns="http://www.w3.org/2000/svg">
<path d="M21.8107 18.6665C21.9174 17.7865 21.9974 16.9065 21.9974 15.9998C21.9974 15.0932 21.9174 14.2132 21.8107 13.3332H26.3174C26.5307 14.1865 26.6641 15.0798 26.6641 15.9998C26.6641 16.9198 26.5307 17.8132 26.3174 18.6665M19.4507 26.0798C20.2507 24.5998 20.8641 22.9998 21.2907 21.3332H25.2241C23.9323 23.5575 21.8829 25.2425 19.4507 26.0798ZM19.1174 18.6665H12.8774C12.7441 17.7865 12.6641 16.9065 12.6641 15.9998C12.6641 15.0932 12.7441 14.1998 12.8774 13.3332H19.1174C19.2374 14.1998 19.3307 15.0932 19.3307 15.9998C19.3307 16.9065 19.2374 17.7865 19.1174 18.6665ZM15.9974 26.6132C14.8907 25.0132 13.9974 23.2398 13.4507 21.3332H18.5441C17.9974 23.2398 17.1041 25.0132 15.9974 26.6132ZM10.6641 10.6665H6.77073C8.0492 8.43612 10.0971 6.74849 12.5307 5.91984C11.7307 7.39984 11.1307 8.99984 10.6641 10.6665ZM6.77073 21.3332H10.6641C11.1307 22.9998 11.7307 24.5998 12.5307 26.0798C10.1022 25.2421 8.05719 23.5568 6.77073 21.3332ZM5.6774 18.6665C5.46406 17.8132 5.33073 16.9198 5.33073 15.9998C5.33073 15.0798 5.46406 14.1865 5.6774 13.3332H10.1841C10.0774 14.2132 9.9974 15.0932 9.9974 15.9998C9.9974 16.9065 10.0774 17.7865 10.1841 18.6665M15.9974 5.37317C17.1041 6.97317 17.9974 8.75984 18.5441 10.6665H13.4507C13.9974 8.75984 14.8907 6.97317 15.9974 5.37317ZM25.2241 10.6665H21.2907C20.8734 9.01511 20.2555 7.42103 19.4507 5.91984C21.9041 6.75984 23.9441 8.45317 25.2241 10.6665ZM15.9974 2.6665C8.62406 2.6665 2.66406 8.6665 2.66406 15.9998C2.66406 19.5361 4.06882 22.9274 6.56931 25.4279C7.80742 26.666 9.27727 27.6482 10.8949 28.3182C12.5126 28.9883 14.2464 29.3332 15.9974 29.3332C19.5336 29.3332 22.925 27.9284 25.4255 25.4279C27.926 22.9274 29.3307 19.5361 29.3307 15.9998C29.3307 14.2489 28.9859 12.5151 28.3158 10.8974C27.6457 9.27972 26.6636 7.80986 25.4255 6.57175C24.1874 5.33363 22.7175 4.35151 21.0998 3.68144C19.4822 3.01138 17.7484 2.6665 15.9974 2.6665Z" fill="white"/>
</svg>
