<svg width="1128" height="395" viewBox="0 0 1128 395" fill="none" xmlns="http://www.w3.org/2000/svg">
<g clip-path="url(#clip0_1913_428)">
<rect width="1128" height="395" rx="20" fill="#0B0B40"/>
<mask id="mask0_1913_428" style="mask-type:luminance" maskUnits="userSpaceOnUse" x="-25" y="-195" width="1178" height="786">
<path d="M1152.51 -195H-25V590.01H1152.51V-195Z" fill="white"/>
</mask>
<g mask="url(#mask0_1913_428)">
<g style="mix-blend-mode:soft-light" opacity="0.43">
<path d="M237.188 328.178L522.805 495.589L490.714 388.576L237.188 328.178Z" fill="white"/>
</g>
<g style="mix-blend-mode:soft-light" opacity="0.43">
<path d="M-88.3125 406.538L17.7423 452.241L-66.0496 316.104L-88.3125 406.538Z" fill="white"/>
</g>
<path style="mix-blend-mode:multiply" d="M771.149 419.522L627.586 330.973L795.044 487.143L771.149 419.522Z" fill="url(#paint0_linear_1913_428)"/>
<path style="mix-blend-mode:multiply" d="M170.797 288.504L211.617 431.062L359.796 515.121L170.797 288.504Z" fill="url(#paint1_linear_1913_428)"/>
<g style="mix-blend-mode:soft-light" opacity="0.43">
<path d="M1020.67 307.831L980.336 617.078L1053.14 538.436L1020.67 307.831Z" fill="white"/>
</g>
<g style="mix-blend-mode:soft-light" opacity="0.43">
<path d="M764.945 117.292L804.541 111.624L724.25 82.6104L764.945 117.292Z" fill="white"/>
</g>
<g style="mix-blend-mode:soft-light" opacity="0.43">
<path d="M833.803 305.507L983.379 296.919L754.188 245.799L833.803 305.507Z" fill="white"/>
</g>
<g style="mix-blend-mode:soft-light" opacity="0.43">
<path d="M559.539 513.99L587.423 378.544L631.493 575.974L559.539 513.99Z" fill="white"/>
</g>
<path style="mix-blend-mode:multiply" d="M1008.91 290.796L913.138 336.342L871.25 450.734L1008.91 290.796Z" fill="url(#paint2_linear_1913_428)"/>
<g style="mix-blend-mode:soft-light" opacity="0.78">
<path d="M48.1172 -138.166L159.259 20.5002L50.0169 -60.089L48.1172 -138.166Z" fill="white"/>
</g>
<path style="mix-blend-mode:multiply" d="M177.102 239.11L290.63 73.7715L276.688 191.303L177.102 239.11Z" fill="url(#paint3_linear_1913_428)"/>
<path style="mix-blend-mode:multiply" d="M91.4432 372.562L83.4832 137.515L-25.5703 283.526L91.4432 372.562Z" fill="url(#paint4_linear_1913_428)"/>
<path style="mix-blend-mode:multiply" d="M1219.2 497.959L1059.52 334.725L1285.71 464.267L1219.2 497.959Z" fill="url(#paint5_linear_1913_428)"/>
<path style="mix-blend-mode:multiply" d="M523.38 357.631L378.389 286.038L315.086 196.673L523.38 357.631Z" fill="url(#paint6_linear_1913_428)"/>
<path style="mix-blend-mode:multiply" opacity="0.64" d="M1053.09 -9.47132L1053.54 44.8984L1181.73 -98.0361L1053.09 -9.47132Z" fill="url(#paint7_linear_1913_428)"/>
<g style="mix-blend-mode:soft-light" opacity="0.43">
<path d="M635.531 313.419L578.508 223.63L586.217 278.785L635.531 313.419Z" fill="white"/>
</g>
<path style="mix-blend-mode:multiply" d="M796.578 16.0108L778.648 -59.6799L880.229 -113.469L796.578 16.0108Z" fill="url(#paint8_linear_1913_428)"/>
<path style="mix-blend-mode:multiply" opacity="0.64" d="M29.6913 59.8299L83.4802 143.496L-91.8125 31.9463L29.6913 59.8299Z" fill="url(#paint9_linear_1913_428)"/>
<path style="mix-blend-mode:multiply" d="M581.617 -93.7959L649.175 -17.854L659.836 87.1803L581.617 -93.7959Z" fill="url(#paint10_linear_1913_428)"/>
<g style="mix-blend-mode:color-dodge">
<path d="M1122.91 189.106L1151.08 152.1L1103.34 113.619L1122.91 189.106Z" stroke="url(#paint11_linear_1913_428)" stroke-width="0.78501" stroke-miterlimit="10"/>
<path d="M148.184 312.776L-26.9675 282.961L-118.578 107.37L148.184 312.776Z" stroke="url(#paint12_linear_1913_428)" stroke-width="0.78501" stroke-miterlimit="10"/>
<path d="M97.1526 505.323L84.8594 142.821L148.178 312.776L97.1526 505.323Z" stroke="url(#paint13_linear_1913_428)" stroke-width="0.78501" stroke-miterlimit="10"/>
<path d="M149.211 8.60014L25.713 -53.6982L-116.625 26.624L149.211 8.60014Z" stroke="url(#paint14_linear_1913_428)" stroke-width="0.78501" stroke-miterlimit="10"/>
<path d="M149.199 8.60093L112.774 -127.064L84.8594 142.822L149.199 8.60093Z" stroke="url(#paint15_linear_1913_428)" stroke-width="0.78501" stroke-miterlimit="10"/>
<path d="M84.8713 142.821L-116.625 26.6234L149.211 8.59961L84.8713 142.821Z" stroke="url(#paint16_linear_1913_428)" stroke-width="0.78501" stroke-miterlimit="10"/>
<path d="M-118.578 107.37L25.7067 -53.6982L-26.9675 282.961L-118.578 107.37Z" stroke="url(#paint17_linear_1913_428)" stroke-width="0.78501" stroke-miterlimit="10"/>
<path d="M1222.13 360.505L1305.01 312.996L1020.68 292.884L1222.13 360.505Z" stroke="url(#paint18_linear_1913_428)" stroke-width="0.78501" stroke-miterlimit="10"/>
<path d="M976.742 640.894L1020.69 292.884L885.492 431.171L976.742 640.894Z" stroke="url(#paint19_linear_1913_428)" stroke-width="0.78501" stroke-miterlimit="10"/>
<path d="M315.75 532.029L371.439 391.764L273.297 428.769L315.75 532.029Z" stroke="url(#paint20_linear_1913_428)" stroke-width="0.78501" stroke-miterlimit="10"/>
<path d="M182.39 240.006L371.436 391.764L148.18 312.776L182.39 240.006Z" stroke="url(#paint21_linear_1913_428)" stroke-width="0.78501" stroke-miterlimit="10"/>
<path d="M256.755 128.299L371.444 391.764L182.398 240.006L256.755 128.299Z" stroke="url(#paint22_linear_1913_428)" stroke-width="0.78501" stroke-miterlimit="10"/>
<path d="M666.141 512.53L684.259 299.415L720.463 415.942L666.141 512.53Z" stroke="url(#paint23_linear_1913_428)" stroke-width="0.78501" stroke-miterlimit="10"/>
<path d="M787.32 234.73L885.478 431.171L720.453 415.942L787.32 234.73Z" stroke="url(#paint24_linear_1913_428)" stroke-width="0.78501" stroke-miterlimit="10"/>
<path d="M787.32 234.731L1020.67 292.884L969.066 161.725L787.32 234.731Z" stroke="url(#paint25_linear_1913_428)" stroke-width="0.78501" stroke-miterlimit="10"/>
<path d="M720.453 415.942L1020.67 292.884L885.478 431.171L720.453 415.942Z" stroke="url(#paint26_linear_1913_428)" stroke-width="0.78501" stroke-miterlimit="10"/>
<path d="M273.293 428.769L182.389 240.005L84.8594 142.821" stroke="url(#paint27_linear_1913_428)" stroke-width="0.78501" stroke-miterlimit="10"/>
<path d="M418.562 228.732L537.648 542.988L371.445 391.763L418.562 228.732Z" stroke="url(#paint28_linear_1913_428)" stroke-width="0.78501" stroke-miterlimit="10"/>
<path d="M383.458 149.965L284.531 87.918L256.758 128.299L383.458 149.965Z" stroke="url(#paint29_linear_1913_428)" stroke-width="0.78501" stroke-miterlimit="10"/>
<path d="M182.398 240.005L418.561 228.733L383.455 149.965L182.398 240.005Z" stroke="url(#paint30_linear_1913_428)" stroke-width="0.78501" stroke-miterlimit="10"/>
<path d="M1020.68 292.884L1222.13 360.505L1187.04 476.812L1020.68 292.884Z" stroke="url(#paint31_linear_1913_428)" stroke-width="0.78501" stroke-miterlimit="10"/>
<path d="M885.492 431.171L1187.05 476.812L1020.69 292.884L885.492 431.171Z" stroke="url(#paint32_linear_1913_428)" stroke-width="0.78501" stroke-miterlimit="10"/>
<path d="M284.531 87.9176L386.252 -14.9658L149.211 8.60016L284.531 87.9176Z" stroke="url(#paint33_linear_1913_428)" stroke-width="0.78501" stroke-miterlimit="10"/>
<path d="M526.129 202.184L386.24 -14.9658L383.445 149.965L526.129 202.184Z" stroke="url(#paint34_linear_1913_428)" stroke-width="0.78501" stroke-miterlimit="10"/>
<path d="M1187.04 476.812L1186.22 679.862L1020.68 292.884L1187.04 476.812Z" stroke="url(#paint35_linear_1913_428)" stroke-width="0.78501" stroke-miterlimit="10"/>
<path d="M97.1484 505.323L148.174 312.775L273.289 428.768L97.1484 505.323Z" stroke="url(#paint36_linear_1913_428)" stroke-width="0.78501" stroke-miterlimit="10"/>
<path d="M149.199 8.60017L84.8594 142.821L386.24 -14.9658L149.199 8.60017Z" stroke="url(#paint37_linear_1913_428)" stroke-width="0.78501" stroke-miterlimit="10"/>
<path d="M768.091 -55.7386L659.838 87.1802L569.688 -72.9932L768.091 -55.7386Z" stroke="url(#paint38_linear_1913_428)" stroke-width="0.78501" stroke-miterlimit="10"/>
<path d="M880.24 -119.435L768.094 -55.7389L803.168 19.3237L880.24 -119.435Z" stroke="url(#paint39_linear_1913_428)" stroke-width="0.78501" stroke-miterlimit="10"/>
<path d="M97.1556 505.323L-109.867 564.246L-26.9702 282.961L97.1556 505.323Z" stroke="url(#paint40_linear_1913_428)" stroke-width="0.78501" stroke-miterlimit="10"/>
<path d="M870.981 164.991C871.096 165.641 871.402 166.244 871.86 166.721C872.317 167.198 872.906 167.529 873.551 167.672C874.197 167.815 874.87 167.763 875.486 167.523C876.102 167.284 876.634 166.867 877.013 166.325C877.392 165.784 877.602 165.142 877.617 164.481C877.632 163.82 877.45 163.17 877.095 162.612C876.741 162.054 876.229 161.614 875.624 161.347C875.019 161.08 874.348 160.999 873.697 161.113C873.264 161.188 872.85 161.349 872.479 161.585C872.108 161.821 871.787 162.128 871.535 162.488C871.282 162.848 871.104 163.255 871.009 163.684C870.914 164.114 870.904 164.557 870.981 164.991Z" fill="url(#paint41_radial_1913_428)"/>
<path d="M983.364 308.223C983.479 308.874 983.785 309.476 984.243 309.953C984.7 310.431 985.289 310.761 985.934 310.904C986.58 311.047 987.253 310.995 987.869 310.756C988.485 310.516 989.016 310.099 989.396 309.558C989.775 309.016 989.985 308.374 990 307.713C990.015 307.052 989.833 306.402 989.478 305.844C989.123 305.286 988.611 304.846 988.006 304.579C987.402 304.313 986.731 304.231 986.08 304.345C985.647 304.421 985.233 304.581 984.862 304.817C984.491 305.053 984.17 305.36 983.918 305.721C983.665 306.081 983.486 306.487 983.391 306.917C983.296 307.346 983.287 307.79 983.364 308.223Z" fill="url(#paint42_radial_1913_428)"/>
<path d="M1050.56 138.614C1050.68 139.266 1050.98 139.868 1051.44 140.345C1051.9 140.822 1052.49 141.152 1053.14 141.294C1053.78 141.436 1054.46 141.383 1055.07 141.142C1055.69 140.9 1056.22 140.482 1056.6 139.939C1056.98 139.396 1057.19 138.753 1057.2 138.091C1057.21 137.43 1057.03 136.779 1056.67 136.223C1056.31 135.666 1055.8 135.227 1055.19 134.963C1054.59 134.698 1053.91 134.619 1053.26 134.736C1052.83 134.812 1052.42 134.973 1052.05 135.209C1051.68 135.445 1051.36 135.752 1051.1 136.113C1050.85 136.473 1050.68 136.88 1050.58 137.309C1050.49 137.739 1050.48 138.182 1050.56 138.614Z" fill="url(#paint43_radial_1913_428)"/>
<path d="M250.505 129.398C250.732 130.613 251.312 131.735 252.174 132.622C253.035 133.509 254.14 134.122 255.348 134.383C256.557 134.645 257.816 134.545 258.967 134.094C260.119 133.643 261.112 132.863 261.821 131.85C262.531 130.838 262.926 129.638 262.957 128.402C262.987 127.166 262.652 125.948 261.994 124.901C261.335 123.855 260.382 123.026 259.255 122.519C258.127 122.011 256.875 121.848 255.655 122.05C254.83 122.186 254.041 122.485 253.334 122.931C252.627 123.376 252.015 123.957 251.536 124.642C251.056 125.326 250.718 126.099 250.541 126.916C250.364 127.732 250.352 128.576 250.505 129.398Z" fill="url(#paint44_radial_1913_428)"/>
<path d="M284.524 91.2625C286.371 91.2625 287.868 89.7653 287.868 87.9184C287.868 86.0714 286.371 84.5742 284.524 84.5742C282.677 84.5742 281.18 86.0714 281.18 87.9184C281.18 89.7653 282.677 91.2625 284.524 91.2625Z" fill="url(#paint45_radial_1913_428)"/>
<path d="M432.377 326.419C432.492 327.07 432.798 327.672 433.256 328.15C433.713 328.627 434.302 328.958 434.947 329.101C435.593 329.243 436.266 329.192 436.882 328.952C437.498 328.712 438.03 328.295 438.409 327.754C438.788 327.212 438.998 326.571 439.013 325.91C439.028 325.249 438.846 324.598 438.491 324.04C438.137 323.483 437.624 323.043 437.02 322.776C436.415 322.509 435.744 322.427 435.093 322.541C434.22 322.698 433.445 323.194 432.936 323.921C432.427 324.647 432.226 325.545 432.377 326.419Z" fill="url(#paint46_radial_1913_428)"/>
<path d="M613.302 215.654C613.418 216.306 613.725 216.908 614.183 217.385C614.642 217.862 615.231 218.192 615.877 218.334C616.524 218.476 617.198 218.423 617.814 218.182C618.43 217.94 618.96 217.522 619.338 216.979C619.717 216.436 619.925 215.793 619.938 215.131C619.95 214.47 619.766 213.82 619.409 213.263C619.052 212.706 618.538 212.267 617.931 212.003C617.325 211.738 616.653 211.659 616.002 211.776C615.13 211.933 614.356 212.43 613.85 213.157C613.344 213.884 613.146 214.782 613.302 215.654Z" fill="url(#paint47_radial_1913_428)"/>
<path d="M519.795 203.314C520.017 204.581 520.61 205.754 521.499 206.684C522.388 207.614 523.533 208.259 524.789 208.538C526.045 208.816 527.355 208.716 528.554 208.25C529.753 207.783 530.787 206.972 531.524 205.917C532.261 204.863 532.669 203.614 532.696 202.328C532.723 201.042 532.367 199.776 531.675 198.692C530.982 197.608 529.983 196.754 528.805 196.238C527.626 195.722 526.321 195.567 525.055 195.794C524.215 195.941 523.413 196.253 522.695 196.711C521.976 197.17 521.354 197.765 520.866 198.463C520.377 199.162 520.031 199.95 519.848 200.782C519.664 201.614 519.646 202.475 519.795 203.314Z" fill="url(#paint48_radial_1913_428)"/>
<path d="M84.8565 152.006C89.929 152.006 94.0411 147.894 94.0411 142.821C94.0411 137.749 89.929 133.637 84.8565 133.637C79.784 133.637 75.6719 137.749 75.6719 142.821C75.6719 147.894 79.784 152.006 84.8565 152.006Z" fill="url(#paint49_radial_1913_428)"/>
<path d="M177.25 240.916C177.445 242.03 177.965 243.062 178.745 243.881C179.525 244.7 180.53 245.27 181.634 245.519C182.737 245.768 183.889 245.685 184.946 245.28C186.002 244.875 186.915 244.167 187.569 243.244C188.223 242.321 188.59 241.226 188.623 240.095C188.656 238.964 188.353 237.849 187.753 236.89C187.154 235.931 186.283 235.171 185.252 234.706C184.221 234.24 183.076 234.09 181.96 234.275C181.213 234.398 180.498 234.669 179.856 235.07C179.214 235.472 178.658 235.996 178.22 236.614C177.782 237.231 177.471 237.929 177.305 238.668C177.138 239.406 177.119 240.17 177.25 240.916Z" fill="url(#paint50_radial_1913_428)"/>
<path d="M611.818 390.884C611.905 391.423 612.15 391.923 612.521 392.322C612.893 392.721 613.376 393 613.907 393.124C614.438 393.248 614.994 393.211 615.504 393.018C616.015 392.825 616.456 392.484 616.771 392.039C617.087 391.595 617.263 391.066 617.278 390.521C617.292 389.975 617.144 389.438 616.851 388.977C616.559 388.517 616.137 388.153 615.637 387.934C615.138 387.714 614.585 387.648 614.048 387.744C613.337 387.867 612.703 388.266 612.286 388.854C611.868 389.443 611.7 390.172 611.818 390.884Z" fill="url(#paint51_radial_1913_428)"/>
<path d="M823.129 343.044C826.586 342.077 828.605 338.491 827.637 335.033C826.67 331.576 823.084 329.558 819.627 330.525C816.17 331.492 814.151 335.079 815.118 338.536C816.086 341.993 819.672 344.011 823.129 343.044Z" fill="url(#paint52_radial_1913_428)"/>
<path d="M411.306 230.004C411.558 231.438 412.229 232.766 413.235 233.819C414.241 234.872 415.537 235.602 416.958 235.919C418.38 236.235 419.863 236.123 421.221 235.597C422.579 235.07 423.75 234.153 424.586 232.961C425.423 231.769 425.887 230.355 425.92 228.9C425.953 227.444 425.554 226.011 424.773 224.782C423.992 223.553 422.864 222.583 421.531 221.995C420.199 221.407 418.722 221.227 417.288 221.479C416.335 221.646 415.425 221.999 414.609 222.517C413.793 223.036 413.087 223.711 412.531 224.502C411.976 225.294 411.582 226.187 411.371 227.131C411.161 228.075 411.139 229.051 411.306 230.004Z" fill="url(#paint53_radial_1913_428)"/>
<path d="M138.934 315.115C139.186 316.553 139.859 317.884 140.868 318.939C141.877 319.994 143.176 320.727 144.601 321.043C146.026 321.36 147.513 321.247 148.874 320.718C150.235 320.19 151.409 319.269 152.246 318.073C153.084 316.877 153.548 315.46 153.579 314C153.611 312.541 153.209 311.105 152.424 309.873C151.639 308.642 150.507 307.672 149.17 307.084C147.834 306.497 146.353 306.319 144.916 306.574C143.961 306.741 143.05 307.094 142.232 307.614C141.415 308.134 140.708 308.81 140.152 309.603C139.597 310.397 139.203 311.292 138.994 312.238C138.785 313.183 138.764 314.161 138.934 315.115Z" fill="url(#paint54_radial_1913_428)"/>
<path d="M367.3 392.501C367.446 393.32 367.832 394.077 368.409 394.677C368.985 395.277 369.727 395.693 370.539 395.871C371.352 396.05 372.199 395.983 372.974 395.68C373.749 395.377 374.417 394.851 374.893 394.169C375.369 393.487 375.632 392.679 375.649 391.847C375.666 391.015 375.436 390.197 374.988 389.496C374.54 388.795 373.894 388.242 373.132 387.908C372.37 387.574 371.526 387.473 370.707 387.618C370.162 387.715 369.642 387.918 369.176 388.216C368.71 388.514 368.308 388.9 367.991 389.354C367.675 389.807 367.451 390.319 367.332 390.859C367.214 391.399 367.203 391.957 367.3 392.501Z" fill="url(#paint55_radial_1913_428)"/>
</g>
<path style="mix-blend-mode:color-dodge" d="M800.565 223.174C800.926 223.52 795.745 229.455 788.978 236.347C782.211 243.239 776.418 248.593 776.057 248.232C775.696 247.871 780.892 241.952 787.659 235.06C794.426 228.167 800.204 222.813 800.565 223.174Z" fill="url(#paint56_radial_1913_428)"/>
<path style="mix-blend-mode:color-dodge" d="M775.783 223.458C776.128 223.081 782.063 228.278 788.955 235.044C795.848 241.811 801.202 247.605 800.84 247.966C800.479 248.327 794.56 243.13 787.668 236.363C780.776 229.597 775.422 223.819 775.783 223.458Z" fill="url(#paint57_radial_1913_428)"/>
<path style="mix-blend-mode:color-dodge" d="M788.007 208.872C788.776 208.872 789.577 220.867 789.702 235.688C789.828 250.509 789.373 262.52 788.603 262.535C787.834 262.551 787.033 250.54 786.892 235.719C786.751 220.898 787.222 208.888 788.007 208.872Z" fill="url(#paint58_radial_1913_428)"/>
<path style="mix-blend-mode:color-dodge" d="M750.156 236.127C750.156 235.028 767.207 233.945 788.276 233.709C809.346 233.474 826.444 234.18 826.459 235.279C826.475 236.378 809.393 237.462 788.323 237.697C767.254 237.933 750.156 237.226 750.156 236.127Z" fill="url(#paint59_radial_1913_428)"/>
<path style="mix-blend-mode:color-dodge" d="M157.923 300.733C158.284 301.078 153.087 307.013 146.32 313.906C139.554 320.798 133.76 326.136 133.415 325.791C133.069 325.445 138.235 319.511 145.002 312.618C151.768 305.726 157.562 300.372 157.923 300.733Z" fill="url(#paint60_radial_1913_428)"/>
<path style="mix-blend-mode:color-dodge" d="M133.127 301.001C133.488 300.64 139.407 305.837 146.299 312.604C153.191 319.37 158.545 325.164 158.184 325.509C157.823 325.855 151.904 320.689 145.012 313.907C138.119 307.124 132.766 301.362 133.127 301.001Z" fill="url(#paint61_radial_1913_428)"/>
<path style="mix-blend-mode:color-dodge" d="M145.363 286.431C146.148 286.431 146.933 298.426 147.074 313.247C147.216 328.068 146.745 340.078 145.96 340.094C145.175 340.11 144.39 328.083 144.264 313.278C144.138 298.473 144.562 286.431 145.363 286.431Z" fill="url(#paint62_radial_1913_428)"/>
<path style="mix-blend-mode:color-dodge" d="M107.508 313.687C107.508 312.588 124.574 311.489 145.644 311.269C166.713 311.049 183.811 311.724 183.811 312.839C183.811 313.954 166.76 315.021 145.691 315.257C124.621 315.492 107.524 314.786 107.508 313.687Z" fill="url(#paint63_radial_1913_428)"/>
<path style="mix-blend-mode:color-dodge" d="M541.77 184.945C542.241 185.416 535.49 193.109 526.635 202.215C517.78 211.321 510.26 218.182 509.789 217.727C509.318 217.271 516.069 209.563 524.924 200.535C533.779 191.507 541.221 184.458 541.77 184.945Z" fill="url(#paint64_radial_1913_428)"/>
<path style="mix-blend-mode:color-dodge" d="M509.349 185.274C509.82 184.803 517.513 191.554 526.541 200.409C535.569 209.264 542.508 216.784 542.053 217.255C541.597 217.726 533.889 210.975 524.861 202.12C515.833 193.266 508.894 185.745 509.349 185.274Z" fill="url(#paint65_radial_1913_428)"/>
<path style="mix-blend-mode:color-dodge" d="M525.316 166.261C526.32 166.261 527.309 181.961 527.529 201.241C527.749 220.521 527.105 236.252 526.085 236.268C525.064 236.284 524.091 220.568 523.871 201.288C523.651 182.008 524.295 166.276 525.316 166.261Z" fill="url(#paint66_radial_1913_428)"/>
<path style="mix-blend-mode:color-dodge" d="M475.914 201.823C475.914 200.379 498.177 198.966 525.668 198.683C553.159 198.4 575.453 199.295 575.469 200.724C575.485 202.153 553.206 203.581 525.715 203.864C498.224 204.147 475.93 203.267 475.914 201.823Z" fill="url(#paint67_radial_1913_428)"/>
<path style="mix-blend-mode:color-dodge" d="M813.077 8.23847C813.391 8.55247 808.932 13.6079 803.123 19.5583C797.314 25.5087 792.353 30.0618 792.039 29.7634C791.725 29.4651 796.184 24.394 801.993 18.4436C807.802 12.4932 812.763 7.94016 813.077 8.23847Z" fill="url(#paint68_radial_1913_428)"/>
<path style="mix-blend-mode:color-dodge" d="M791.803 8.49023C792.101 8.17622 797.172 12.6351 803.107 18.4441C809.042 24.2532 813.626 29.2145 813.312 29.5285C812.998 29.8425 807.958 25.3679 802.008 19.5589C796.058 13.7498 791.505 8.78853 791.803 8.49023Z" fill="url(#paint69_radial_1913_428)"/>
<path style="mix-blend-mode:color-dodge" d="M802.297 -4.02344C802.957 -4.02344 803.616 6.2602 803.757 18.9931C803.899 31.7259 803.475 42.0252 802.815 42.0409C802.156 42.0566 801.481 31.7416 801.34 19.0087C801.198 6.27589 801.622 -4.02344 802.297 -4.02344Z" fill="url(#paint70_radial_1913_428)"/>
<path style="mix-blend-mode:color-dodge" d="M769.805 19.3696C769.805 18.4276 784.453 17.4856 802.54 17.2815C820.626 17.0774 835.306 17.6897 835.306 18.6317C835.306 19.5737 820.673 20.5157 802.571 20.7198C784.469 20.9239 769.82 20.3116 769.805 19.3696Z" fill="url(#paint71_radial_1913_428)"/>
<path style="mix-blend-mode:color-dodge" d="M693.885 287.954C694.168 288.236 690.196 292.742 685.015 298.033C679.833 303.324 675.422 307.454 675.139 307.124C674.857 306.794 678.844 302.335 684.01 297.044C689.175 291.753 693.603 287.687 693.885 287.954Z" fill="url(#paint72_radial_1913_428)"/>
<path style="mix-blend-mode:color-dodge" d="M674.942 288.173C675.209 287.891 679.652 291.863 685.006 297.044C690.36 302.225 694.426 306.637 694.096 306.904C693.767 307.171 689.386 303.214 684.033 298.033C678.679 292.852 674.675 288.44 674.942 288.173Z" fill="url(#paint73_radial_1913_428)"/>
<path style="mix-blend-mode:color-dodge" d="M684.302 277.026C684.883 277.026 685.463 286.195 685.605 297.531C685.746 308.866 685.354 318.051 684.757 318.051C684.16 318.051 683.579 308.882 683.454 297.547C683.328 286.211 683.705 277.026 684.302 277.026Z" fill="url(#paint74_radial_1913_428)"/>
<path style="mix-blend-mode:color-dodge" d="M655.344 297.86C655.344 297.028 668.391 296.196 684.499 296.008C700.607 295.819 713.67 296.369 713.686 297.217C713.701 298.065 700.639 298.881 684.53 299.069C668.422 299.258 655.359 298.708 655.344 297.86Z" fill="url(#paint75_radial_1913_428)"/>
<path style="mix-blend-mode:color-dodge" d="M166.748 -9.37713C167.282 -8.85902 159.62 -0.145416 149.619 10.0597C139.618 20.2648 131.108 28.1463 130.559 27.6125C130.009 27.0787 137.703 18.3965 147.688 8.17569C157.673 -2.04514 166.214 -9.89523 166.748 -9.37713Z" fill="url(#paint76_radial_1913_428)"/>
<path style="mix-blend-mode:color-dodge" d="M130.165 -8.96883C130.699 -9.50264 139.397 -1.84094 149.617 8.14438C159.838 18.1297 167.688 26.6706 167.17 27.2044C166.652 27.7382 157.939 20.0922 147.702 10.0912C137.466 0.0901899 129.647 -8.43503 130.165 -8.96883Z" fill="url(#paint77_radial_1913_428)"/>
<path style="mix-blend-mode:color-dodge" d="M148.216 -30.4775C149.362 -30.4775 150.493 -12.7834 150.744 9.10266C150.995 30.9887 150.257 48.7143 149.174 48.73C148.091 48.7457 146.835 31.0829 146.599 9.10266C146.364 -12.8776 147.086 -30.4775 148.216 -30.4775Z" fill="url(#paint78_radial_1913_428)"/>
<path style="mix-blend-mode:color-dodge" d="M148.637 6.16599C129.326 6.3858 112.307 7.0923 102.165 7.97151C102.165 9.08622 102.165 10.1852 102.039 11.2999C112.181 11.9593 129.295 12.2891 148.7 12.0693C179.802 11.7239 205.001 10.1224 204.985 8.48962C204.97 6.8568 179.739 5.82059 148.637 6.16599Z" fill="url(#paint79_radial_1913_428)"/>
<g opacity="0.55">
<path d="M578.32 54.2252C577.844 54.2248 577.384 54.054 577.023 53.7437C576.662 53.4334 576.423 53.0041 576.351 52.5335C576.279 52.0629 576.378 51.5819 576.629 51.1777C576.881 50.7734 577.269 50.4726 577.723 50.3295C578.177 50.1864 578.667 50.2105 579.105 50.3976C579.543 50.5846 579.9 50.9221 580.11 51.3491C580.321 51.7761 580.372 52.2645 580.254 52.7257C580.136 53.187 579.856 53.5908 579.466 53.864C579.13 54.0976 578.73 54.2235 578.32 54.2252Z" fill="white"/>
<path d="M975.094 161.882C974.952 161.882 974.813 161.848 974.687 161.782C974.561 161.716 974.453 161.621 974.372 161.505C974.276 161.373 974.218 161.217 974.206 161.054C974.193 160.891 974.226 160.728 974.301 160.583C974.376 160.438 974.49 160.317 974.63 160.233C974.77 160.149 974.931 160.105 975.094 160.108C975.236 160.107 975.376 160.142 975.502 160.207C975.627 160.273 975.735 160.368 975.817 160.484C975.888 160.577 975.938 160.684 975.965 160.797C975.992 160.911 975.995 161.029 975.974 161.144C975.929 161.375 975.8 161.582 975.612 161.725C975.457 161.823 975.278 161.878 975.094 161.882Z" fill="white"/>
<path d="M179.096 136.054C178.786 136.05 178.486 135.948 178.237 135.763C177.988 135.579 177.804 135.32 177.71 135.025C177.616 134.73 177.618 134.413 177.714 134.118C177.811 133.824 177.998 133.567 178.248 133.385C178.501 133.222 178.795 133.135 179.096 133.134C179.33 133.132 179.56 133.186 179.768 133.293C179.976 133.4 180.155 133.555 180.289 133.746C180.402 133.904 180.482 134.082 180.525 134.27C180.568 134.459 180.573 134.654 180.54 134.845C180.51 135.034 180.441 135.216 180.339 135.377C180.236 135.539 180.102 135.679 179.944 135.787C179.693 135.956 179.398 136.049 179.096 136.054Z" fill="white"/>
<path d="M674.382 110.841C674.238 110.842 674.097 110.806 673.97 110.738C673.844 110.669 673.737 110.569 673.66 110.448C673.591 110.355 673.542 110.247 673.518 110.134C673.494 110.02 673.494 109.902 673.519 109.789C673.532 109.673 673.572 109.563 673.634 109.465C673.697 109.367 673.781 109.284 673.88 109.224C674.024 109.113 674.2 109.052 674.382 109.051C674.528 109.05 674.672 109.085 674.801 109.154C674.93 109.222 675.039 109.322 675.12 109.443C675.249 109.636 675.299 109.872 675.258 110.1C675.217 110.329 675.089 110.532 674.9 110.668C674.75 110.779 674.569 110.84 674.382 110.841Z" fill="white"/>
<path d="M708.197 251.278C708.022 251.262 707.855 251.195 707.718 251.085C707.581 250.975 707.479 250.827 707.425 250.66C707.372 250.492 707.369 250.313 707.417 250.143C707.464 249.974 707.561 249.823 707.694 249.708C707.839 249.601 708.017 249.545 708.197 249.551C708.339 249.551 708.478 249.585 708.604 249.651C708.73 249.717 708.838 249.812 708.919 249.928C709.056 250.119 709.112 250.356 709.076 250.587C709.031 250.79 708.921 250.972 708.762 251.106C708.603 251.239 708.404 251.316 708.197 251.325V251.278Z" fill="white"/>
<path d="M770.394 201.681C769.988 201.684 769.587 201.589 769.226 201.403C768.865 201.217 768.555 200.946 768.321 200.614C767.938 200.062 767.789 199.38 767.906 198.718C768.024 198.056 768.399 197.468 768.949 197.081C769.372 196.784 769.877 196.625 770.394 196.626C770.801 196.628 771.201 196.727 771.562 196.915C771.923 197.104 772.233 197.376 772.466 197.709C772.73 198.088 772.885 198.532 772.915 198.993C772.944 199.454 772.847 199.914 772.633 200.323C772.419 200.732 772.098 201.075 771.703 201.315C771.308 201.554 770.856 201.681 770.394 201.681Z" fill="white"/>
<path d="M810.025 91.2146C809.486 91.2174 808.96 91.0478 808.525 90.7307C808.089 90.4135 807.766 89.9654 807.603 89.4517C807.44 88.938 807.445 88.3856 807.618 87.8752C807.791 87.3648 808.123 86.923 808.565 86.6145C808.994 86.3174 809.503 86.1586 810.025 86.1592C810.695 86.1592 811.338 86.4255 811.812 86.8995C812.286 87.3736 812.553 88.0165 812.553 88.6869C812.553 89.3573 812.286 90.0003 811.812 90.4743C811.338 90.9483 810.695 91.2146 810.025 91.2146Z" fill="white"/>
<path d="M768.205 340.69C768.02 340.711 767.834 340.692 767.658 340.635C767.481 340.578 767.319 340.485 767.181 340.361C767.043 340.238 766.932 340.086 766.857 339.917C766.781 339.748 766.742 339.565 766.742 339.379C766.742 339.194 766.781 339.011 766.857 338.842C766.932 338.672 767.043 338.521 767.181 338.397C767.319 338.274 767.481 338.18 767.658 338.124C767.834 338.067 768.02 338.048 768.205 338.068C768.483 338.069 768.754 338.158 768.978 338.323C769.203 338.487 769.37 338.718 769.455 338.983C769.54 339.247 769.54 339.532 769.453 339.797C769.367 340.061 769.199 340.291 768.974 340.455C768.748 340.611 768.479 340.693 768.205 340.69Z" fill="white"/>
<path d="M41.0225 73.6144C40.6395 73.6144 40.2721 73.4622 40.0012 73.1914C39.7303 72.9205 39.5781 72.5531 39.5781 72.17C39.5781 71.7869 39.7303 71.4195 40.0012 71.1486C40.2721 70.8778 40.6395 70.7256 41.0225 70.7256C41.3285 70.7265 41.6263 70.8246 41.8729 71.0057C42.1195 71.1867 42.3023 71.4414 42.3949 71.7331C42.4874 72.0247 42.485 72.3382 42.3879 72.6283C42.2908 72.9185 42.1041 73.1703 41.8547 73.3475C41.611 73.5193 41.3207 73.6125 41.0225 73.6144Z" fill="white"/>
<path d="M509.744 303.858C509.456 303.854 509.177 303.759 508.946 303.586C508.715 303.414 508.545 303.173 508.46 302.897C508.374 302.622 508.378 302.327 508.471 302.054C508.563 301.781 508.74 301.544 508.975 301.378C509.272 301.177 509.635 301.1 509.988 301.165C510.34 301.23 510.653 301.43 510.859 301.723C510.964 301.868 511.038 302.032 511.078 302.206C511.118 302.379 511.123 302.559 511.092 302.735C511.061 302.91 510.996 303.078 510.899 303.228C510.802 303.378 510.677 303.507 510.529 303.607C510.299 303.767 510.025 303.855 509.744 303.858Z" fill="white"/>
<path d="M11.7639 304.534C10.6057 304.532 9.48647 304.115 8.6086 303.359C7.73074 302.604 7.15214 301.559 6.97741 300.414C6.80268 299.269 7.04335 298.1 7.65591 297.117C8.26847 296.134 9.21249 295.402 10.3173 295.055C11.4222 294.707 12.6149 294.766 13.6799 295.221C14.7449 295.677 15.612 296.498 16.1243 297.537C16.6365 298.575 16.7603 299.763 16.4731 300.885C16.186 302.007 15.5068 302.99 14.5585 303.655C13.7394 304.228 12.7636 304.535 11.7639 304.534Z" fill="white"/>
<path d="M1113.27 229.157C1112.95 229.157 1112.65 229.057 1112.39 228.872C1112.14 228.686 1111.95 228.425 1111.86 228.125C1111.76 227.826 1111.77 227.504 1111.87 227.207C1111.97 226.91 1112.16 226.652 1112.42 226.472C1112.66 226.289 1112.96 226.189 1113.27 226.189C1113.5 226.19 1113.74 226.249 1113.95 226.361C1114.16 226.473 1114.34 226.635 1114.48 226.833C1114.59 226.99 1114.67 227.168 1114.71 227.357C1114.76 227.546 1114.76 227.742 1114.73 227.932C1114.65 228.317 1114.43 228.658 1114.11 228.89C1113.87 229.064 1113.57 229.157 1113.27 229.157Z" fill="white"/>
<path d="M675.227 48.7456C674.991 48.7385 674.76 48.6783 674.551 48.5696C674.341 48.4608 674.159 48.3064 674.018 48.1176C673.907 47.9589 673.827 47.7797 673.785 47.5905C673.743 47.4012 673.739 47.2054 673.772 47.0144C673.806 46.8234 673.877 46.6409 673.981 46.4773C674.085 46.3137 674.22 46.1721 674.379 46.0609C674.63 45.8921 674.924 45.7994 675.227 45.794C675.464 45.7925 675.698 45.8489 675.909 45.9584C676.12 46.0678 676.3 46.2269 676.436 46.422C676.657 46.7488 676.746 47.1468 676.687 47.5367C676.655 47.7272 676.584 47.9092 676.479 48.0712C676.373 48.2332 676.236 48.3719 676.075 48.4787C675.83 48.6597 675.531 48.7537 675.227 48.7456Z" fill="white"/>
<path d="M1045.2 200.128C1044.89 200.114 1044.59 200.029 1044.32 199.879C1044.05 199.729 1043.81 199.519 1043.63 199.264C1043.48 199.05 1043.37 198.809 1043.31 198.552C1043.26 198.296 1043.25 198.031 1043.3 197.773C1043.34 197.514 1043.44 197.267 1043.58 197.046C1043.72 196.825 1043.9 196.634 1044.12 196.485C1044.46 196.252 1044.86 196.126 1045.27 196.124C1045.58 196.131 1045.88 196.212 1046.15 196.359C1046.43 196.507 1046.66 196.717 1046.84 196.972C1047.04 197.266 1047.17 197.611 1047.19 197.97C1047.22 198.329 1047.15 198.689 1046.99 199.011C1046.83 199.333 1046.58 199.605 1046.28 199.799C1045.98 199.993 1045.63 200.101 1045.27 200.112L1045.2 200.128Z" fill="white"/>
<path d="M293.475 285.756C293.273 285.756 293.073 285.707 292.893 285.614C292.712 285.522 292.557 285.387 292.439 285.222C292.341 285.087 292.272 284.933 292.234 284.771C292.197 284.608 292.193 284.44 292.222 284.276C292.252 284.112 292.314 283.955 292.405 283.816C292.496 283.676 292.615 283.556 292.753 283.463C292.956 283.309 293.205 283.227 293.46 283.228C293.73 283.222 293.996 283.303 294.216 283.46C294.437 283.617 294.601 283.841 294.684 284.099C294.767 284.356 294.764 284.634 294.677 284.89C294.589 285.146 294.421 285.367 294.198 285.52C293.987 285.672 293.735 285.755 293.475 285.756Z" fill="white"/>
<path d="M435.333 132.946C435.189 132.946 435.047 132.912 434.919 132.846C434.791 132.781 434.68 132.686 434.595 132.569C434.528 132.475 434.481 132.368 434.456 132.254C434.432 132.141 434.431 132.024 434.454 131.91C434.472 131.794 434.514 131.683 434.576 131.583C434.638 131.483 434.719 131.397 434.815 131.329C434.96 131.221 435.137 131.166 435.318 131.172C435.444 131.155 435.572 131.165 435.695 131.202C435.817 131.239 435.929 131.302 436.025 131.386C436.121 131.47 436.198 131.573 436.251 131.689C436.303 131.805 436.331 131.931 436.331 132.059C436.331 132.186 436.303 132.313 436.251 132.429C436.198 132.545 436.121 132.648 436.025 132.732C435.929 132.816 435.817 132.879 435.695 132.916C435.572 132.953 435.444 132.963 435.318 132.946H435.333Z" fill="white"/>
<path d="M995.364 48.1649C994.777 48.1629 994.199 48.0191 993.68 47.7457C993.16 47.4723 992.715 47.0775 992.381 46.5948C992.107 46.204 991.913 45.7627 991.811 45.2965C991.708 44.8303 991.699 44.3484 991.784 43.8787C991.979 42.9226 992.543 42.082 993.354 41.5394C993.943 41.1267 994.64 40.8982 995.359 40.8827C996.077 40.8672 996.784 41.0655 997.389 41.4523C997.995 41.8392 998.472 42.3973 998.76 43.0557C999.048 43.7141 999.134 44.4432 999.006 45.1504C998.926 45.62 998.753 46.0688 998.496 46.4705C998.24 46.8722 997.907 47.2187 997.515 47.4897C996.887 47.9366 996.134 48.1729 995.364 48.1649Z" fill="url(#paint80_radial_1913_428)"/>
<path d="M926.982 76.6131C926.804 76.6146 926.628 76.5724 926.469 76.4903C926.31 76.4083 926.174 76.2887 926.072 76.1421C925.986 76.0264 925.927 75.8936 925.897 75.7527C925.867 75.6119 925.868 75.4662 925.899 75.3257C925.92 75.1802 925.972 75.0407 926.05 74.9163C926.129 74.792 926.232 74.6854 926.355 74.6035C926.537 74.4708 926.757 74.3994 926.982 74.3994C927.16 74.4009 927.335 74.4461 927.491 74.531C927.647 74.6159 927.78 74.7378 927.877 74.8861C927.971 75.0036 928.039 75.1396 928.077 75.2852C928.114 75.4308 928.121 75.5827 928.095 75.7309C928.07 75.8791 928.014 76.0203 927.93 76.1453C927.847 76.2703 927.738 76.3762 927.611 76.4561C927.423 76.5742 927.203 76.6292 926.982 76.6131Z" fill="white"/>
<path d="M488.668 24.6458C488.506 24.6464 488.346 24.6083 488.201 24.5346C488.056 24.4609 487.931 24.3537 487.836 24.2219C487.69 23.9996 487.634 23.7303 487.679 23.4683C487.699 23.3385 487.745 23.2141 487.815 23.1033C487.886 22.9924 487.978 22.8975 488.087 22.8246C488.194 22.7466 488.315 22.6908 488.444 22.6604C488.572 22.63 488.705 22.6256 488.836 22.6475C488.966 22.6695 489.09 22.7173 489.202 22.7882C489.313 22.859 489.409 22.9515 489.485 23.0601C489.563 23.1679 489.619 23.2903 489.65 23.4201C489.68 23.5498 489.685 23.6844 489.663 23.8159C489.641 23.9474 489.593 24.0733 489.522 24.1861C489.451 24.2989 489.358 24.3965 489.249 24.4731C489.075 24.584 488.874 24.6438 488.668 24.6458Z" fill="white"/>
</g>
</g>
</g>
<defs>
<linearGradient id="paint0_linear_1913_428" x1="684.017" y1="430.493" x2="713.9" y2="382.295" gradientUnits="userSpaceOnUse">
<stop stop-color="#00ABAC"/>
<stop offset="0.11" stop-color="#15B2B3"/>
<stop offset="0.34" stop-color="#4BC4C4"/>
<stop offset="0.67" stop-color="#A1E0E0"/>
<stop offset="1" stop-color="white"/>
</linearGradient>
<linearGradient id="paint1_linear_1913_428" x1="222.192" y1="436.484" x2="274.594" y2="351.942" gradientUnits="userSpaceOnUse">
<stop stop-color="#00ABAC"/>
<stop offset="0.11" stop-color="#15B2B3"/>
<stop offset="0.34" stop-color="#4BC4C4"/>
<stop offset="0.67" stop-color="#A1E0E0"/>
<stop offset="1" stop-color="white"/>
</linearGradient>
<linearGradient id="paint2_linear_1913_428" x1="905.779" y1="342.15" x2="971.427" y2="369.55" gradientUnits="userSpaceOnUse">
<stop stop-color="#00ABAC"/>
<stop offset="0.11" stop-color="#15B2B3"/>
<stop offset="0.34" stop-color="#4BC4C4"/>
<stop offset="0.67" stop-color="#A1E0E0"/>
<stop offset="1" stop-color="white"/>
</linearGradient>
<linearGradient id="paint3_linear_1913_428" x1="177.102" y1="156.449" x2="290.63" y2="156.449" gradientUnits="userSpaceOnUse">
<stop stop-color="#00ABAC"/>
<stop offset="0.11" stop-color="#15B2B3"/>
<stop offset="0.34" stop-color="#4BC4C4"/>
<stop offset="0.67" stop-color="#A1E0E0"/>
<stop offset="1" stop-color="white"/>
</linearGradient>
<linearGradient id="paint4_linear_1913_428" x1="15.6254" y1="311.565" x2="110.453" y2="158.617" gradientUnits="userSpaceOnUse">
<stop stop-color="#00ABAC"/>
<stop offset="0.11" stop-color="#15B2B3"/>
<stop offset="0.34" stop-color="#4BC4C4"/>
<stop offset="0.67" stop-color="#A1E0E0"/>
<stop offset="1" stop-color="white"/>
</linearGradient>
<linearGradient id="paint5_linear_1913_428" x1="1138.97" y1="427.97" x2="1178.51" y2="379.225" gradientUnits="userSpaceOnUse">
<stop stop-color="#00ABAC"/>
<stop offset="0.11" stop-color="#15B2B3"/>
<stop offset="0.34" stop-color="#4BC4C4"/>
<stop offset="0.67" stop-color="#A1E0E0"/>
<stop offset="1" stop-color="white"/>
</linearGradient>
<linearGradient id="paint6_linear_1913_428" x1="397.993" y1="294.191" x2="418.597" y2="260.96" gradientUnits="userSpaceOnUse">
<stop stop-color="#00ABAC"/>
<stop offset="0.11" stop-color="#15B2B3"/>
<stop offset="0.34" stop-color="#4BC4C4"/>
<stop offset="0.67" stop-color="#A1E0E0"/>
<stop offset="1" stop-color="white"/>
</linearGradient>
<linearGradient id="paint7_linear_1913_428" x1="1096.96" y1="-64.9575" x2="1138.01" y2="-36.1833" gradientUnits="userSpaceOnUse">
<stop stop-color="#00ABAC"/>
<stop offset="0.11" stop-color="#15B2B3"/>
<stop offset="0.34" stop-color="#4BC4C4"/>
<stop offset="0.67" stop-color="#A1E0E0"/>
<stop offset="1" stop-color="white"/>
</linearGradient>
<linearGradient id="paint8_linear_1913_428" x1="897.028" y1="-41.533" x2="789.256" y2="-16.4574" gradientUnits="userSpaceOnUse">
<stop stop-color="#00ABAC"/>
<stop offset="0.11" stop-color="#15B2B3"/>
<stop offset="0.34" stop-color="#4BC4C4"/>
<stop offset="0.67" stop-color="#A1E0E0"/>
<stop offset="1" stop-color="white"/>
</linearGradient>
<linearGradient id="paint9_linear_1913_428" x1="3.01243" y1="50.2595" x2="-11.4737" y2="125.063" gradientUnits="userSpaceOnUse">
<stop stop-color="#00ABAC"/>
<stop offset="0.11" stop-color="#15B2B3"/>
<stop offset="0.34" stop-color="#4BC4C4"/>
<stop offset="0.67" stop-color="#A1E0E0"/>
<stop offset="1" stop-color="white"/>
</linearGradient>
<linearGradient id="paint10_linear_1913_428" x1="651.661" y1="0.00524424" x2="608.288" y2="10.0919" gradientUnits="userSpaceOnUse">
<stop stop-color="#00ABAC"/>
<stop offset="0.11" stop-color="#15B2B3"/>
<stop offset="0.34" stop-color="#4BC4C4"/>
<stop offset="0.67" stop-color="#A1E0E0"/>
<stop offset="1" stop-color="white"/>
</linearGradient>
<linearGradient id="paint11_linear_1913_428" x1="1124.53" y1="138.87" x2="1094.96" y2="184.04" gradientUnits="userSpaceOnUse">
<stop stop-color="#00D5FF"/>
<stop offset="1" stop-color="#007DC6"/>
</linearGradient>
<linearGradient id="paint12_linear_1913_428" x1="142.934" y1="176.885" x2="-80.7964" y2="215.695" gradientUnits="userSpaceOnUse">
<stop stop-color="#00D5FF"/>
<stop offset="1" stop-color="#007DC6"/>
</linearGradient>
<linearGradient id="paint13_linear_1913_428" x1="164.279" y1="299.325" x2="81.5168" y2="313.681" gradientUnits="userSpaceOnUse">
<stop stop-color="#00D5FF"/>
<stop offset="1" stop-color="#007DC6"/>
</linearGradient>
<linearGradient id="paint14_linear_1913_428" x1="158.872" y1="-43.8371" x2="-102.709" y2="1.53913" gradientUnits="userSpaceOnUse">
<stop stop-color="#00D5FF"/>
<stop offset="1" stop-color="#007DC6"/>
</linearGradient>
<linearGradient id="paint15_linear_1913_428" x1="164.456" y1="-12.5855" x2="78.1698" y2="2.38239" gradientUnits="userSpaceOnUse">
<stop stop-color="#00D5FF"/>
<stop offset="1" stop-color="#007DC6"/>
</linearGradient>
<linearGradient id="paint16_linear_1913_428" x1="174.245" y1="41.95" x2="-87.3049" y2="87.3209" gradientUnits="userSpaceOnUse">
<stop stop-color="#00D5FF"/>
<stop offset="1" stop-color="#007DC6"/>
</linearGradient>
<linearGradient id="paint17_linear_1913_428" x1="71.2228" y1="92.4065" x2="-96.6713" y2="121.531" gradientUnits="userSpaceOnUse">
<stop stop-color="#00D5FF"/>
<stop offset="1" stop-color="#007DC6"/>
</linearGradient>
<linearGradient id="paint18_linear_1913_428" x1="1196.62" y1="253.104" x2="1119.03" y2="371.6" gradientUnits="userSpaceOnUse">
<stop stop-color="#00D5FF"/>
<stop offset="1" stop-color="#007DC6"/>
</linearGradient>
<linearGradient id="paint19_linear_1913_428" x1="1065.79" y1="333.872" x2="891.127" y2="600.629" gradientUnits="userSpaceOnUse">
<stop stop-color="#00D5FF"/>
<stop offset="1" stop-color="#007DC6"/>
</linearGradient>
<linearGradient id="paint20_linear_1913_428" x1="397.482" y1="441.55" x2="295.21" y2="459.291" gradientUnits="userSpaceOnUse">
<stop stop-color="#00D5FF"/>
<stop offset="1" stop-color="#007DC6"/>
</linearGradient>
<linearGradient id="paint21_linear_1913_428" x1="372.097" y1="289.284" x2="167.706" y2="324.739" gradientUnits="userSpaceOnUse">
<stop stop-color="#00D5FF"/>
<stop offset="1" stop-color="#007DC6"/>
</linearGradient>
<linearGradient id="paint22_linear_1913_428" x1="362.787" y1="241.783" x2="204.863" y2="269.178" gradientUnits="userSpaceOnUse">
<stop stop-color="#00D5FF"/>
<stop offset="1" stop-color="#007DC6"/>
</linearGradient>
<linearGradient id="paint23_linear_1913_428" x1="721.375" y1="335.677" x2="616.018" y2="496.585" gradientUnits="userSpaceOnUse">
<stop stop-color="#00D5FF"/>
<stop offset="1" stop-color="#007DC6"/>
</linearGradient>
<linearGradient id="paint24_linear_1913_428" x1="861.855" y1="295.902" x2="757.569" y2="455.175" gradientUnits="userSpaceOnUse">
<stop stop-color="#00D5FF"/>
<stop offset="1" stop-color="#007DC6"/>
</linearGradient>
<linearGradient id="paint25_linear_1913_428" x1="965.594" y1="171.335" x2="876.523" y2="307.371" gradientUnits="userSpaceOnUse">
<stop stop-color="#00D5FF"/>
<stop offset="1" stop-color="#007DC6"/>
</linearGradient>
<linearGradient id="paint26_linear_1913_428" x1="939.545" y1="250.543" x2="790.874" y2="477.604" gradientUnits="userSpaceOnUse">
<stop stop-color="#00D5FF"/>
<stop offset="1" stop-color="#007DC6"/>
</linearGradient>
<linearGradient id="paint27_linear_1913_428" x1="261.647" y1="260.895" x2="127.725" y2="284.127" gradientUnits="userSpaceOnUse">
<stop stop-color="#00D5FF"/>
<stop offset="1" stop-color="#007DC6"/>
</linearGradient>
<linearGradient id="paint28_linear_1913_428" x1="523.309" y1="367.595" x2="387.479" y2="391.158" gradientUnits="userSpaceOnUse">
<stop stop-color="#00D5FF"/>
<stop offset="1" stop-color="#007DC6"/>
</linearGradient>
<linearGradient id="paint29_linear_1913_428" x1="393.408" y1="99.5988" x2="272.411" y2="120.588" gradientUnits="userSpaceOnUse">
<stop stop-color="#00D5FF"/>
<stop offset="1" stop-color="#007DC6"/>
</linearGradient>
<linearGradient id="paint30_linear_1913_428" x1="426.435" y1="175.349" x2="193.996" y2="215.67" gradientUnits="userSpaceOnUse">
<stop stop-color="#00D5FF"/>
<stop offset="1" stop-color="#007DC6"/>
</linearGradient>
<linearGradient id="paint31_linear_1913_428" x1="1146.15" y1="322.844" x2="1081.49" y2="421.597" gradientUnits="userSpaceOnUse">
<stop stop-color="#00D5FF"/>
<stop offset="1" stop-color="#007DC6"/>
</linearGradient>
<linearGradient id="paint32_linear_1913_428" x1="1101.57" y1="358.186" x2="996.569" y2="518.554" gradientUnits="userSpaceOnUse">
<stop stop-color="#00D5FF"/>
<stop offset="1" stop-color="#007DC6"/>
</linearGradient>
<linearGradient id="paint33_linear_1913_428" x1="408.22" y1="6.00682" x2="173.181" y2="46.779" gradientUnits="userSpaceOnUse">
<stop stop-color="#00D5FF"/>
<stop offset="1" stop-color="#007DC6"/>
</linearGradient>
<linearGradient id="paint34_linear_1913_428" x1="520.618" y1="73.2972" x2="390.543" y2="95.8612" gradientUnits="userSpaceOnUse">
<stop stop-color="#00D5FF"/>
<stop offset="1" stop-color="#007DC6"/>
</linearGradient>
<linearGradient id="paint35_linear_1913_428" x1="1163.34" y1="398.052" x2="1033.87" y2="595.795" gradientUnits="userSpaceOnUse">
<stop stop-color="#00D5FF"/>
<stop offset="1" stop-color="#007DC6"/>
</linearGradient>
<linearGradient id="paint36_linear_1913_428" x1="280.904" y1="370.194" x2="96.5465" y2="402.174" gradientUnits="userSpaceOnUse">
<stop stop-color="#00D5FF"/>
<stop offset="1" stop-color="#007DC6"/>
</linearGradient>
<linearGradient id="paint37_linear_1913_428" x1="410.792" y1="15.5119" x2="90.0824" y2="71.1452" gradientUnits="userSpaceOnUse">
<stop stop-color="#00D5FF"/>
<stop offset="1" stop-color="#007DC6"/>
</linearGradient>
<linearGradient id="paint38_linear_1913_428" x1="776.543" y1="-22.5525" x2="588.462" y2="15.8313" gradientUnits="userSpaceOnUse">
<stop stop-color="#00D5FF"/>
<stop offset="1" stop-color="#007DC6"/>
</linearGradient>
<linearGradient id="paint39_linear_1913_428" x1="895.363" y1="-58.0842" x2="773.612" y2="-33.237" gradientUnits="userSpaceOnUse">
<stop stop-color="#00D5FF"/>
<stop offset="1" stop-color="#007DC6"/>
</linearGradient>
<linearGradient id="paint40_linear_1913_428" x1="-110.448" y1="423.383" x2="97.7365" y2="423.383" gradientUnits="userSpaceOnUse">
<stop stop-color="#00D5FF"/>
<stop offset="1" stop-color="#007DC6"/>
</linearGradient>
<radialGradient id="paint41_radial_1913_428" cx="0" cy="0" r="1" gradientUnits="userSpaceOnUse" gradientTransform="translate(874.278 164.41) scale(3.34413 3.34414)">
<stop offset="0.66" stop-color="#00D5FF"/>
<stop offset="1" stop-color="#007DC6"/>
</radialGradient>
<radialGradient id="paint42_radial_1913_428" cx="0" cy="0" r="1" gradientUnits="userSpaceOnUse" gradientTransform="translate(986.661 307.642) scale(3.34413 3.34415)">
<stop offset="0.66" stop-color="#00D5FF"/>
<stop offset="1" stop-color="#007DC6"/>
</radialGradient>
<radialGradient id="paint43_radial_1913_428" cx="0" cy="0" r="1" gradientUnits="userSpaceOnUse" gradientTransform="translate(1053.84 138.033) scale(3.34412 3.34414)">
<stop offset="0.66" stop-color="#00D5FF"/>
<stop offset="1" stop-color="#007DC6"/>
</radialGradient>
<radialGradient id="paint44_radial_1913_428" cx="0" cy="0" r="1" gradientUnits="userSpaceOnUse" gradientTransform="translate(256.754 128.299) scale(6.34288 6.34288)">
<stop offset="0.66" stop-color="#00D5FF"/>
<stop offset="1" stop-color="#007DC6"/>
</radialGradient>
<radialGradient id="paint45_radial_1913_428" cx="0" cy="0" r="1" gradientUnits="userSpaceOnUse" gradientTransform="translate(284.524 87.9184) scale(3.34415)">
<stop offset="0.66" stop-color="#00D5FF"/>
<stop offset="1" stop-color="#007DC6"/>
</radialGradient>
<radialGradient id="paint46_radial_1913_428" cx="0" cy="0" r="1" gradientUnits="userSpaceOnUse" gradientTransform="translate(435.674 325.838) scale(3.34413 3.34414)">
<stop offset="0.66" stop-color="#00D5FF"/>
<stop offset="1" stop-color="#007DC6"/>
</radialGradient>
<radialGradient id="paint47_radial_1913_428" cx="0" cy="0" r="1" gradientUnits="userSpaceOnUse" gradientTransform="translate(616.583 215.073) scale(3.34414 3.34414)">
<stop offset="0.66" stop-color="#00D5FF"/>
<stop offset="1" stop-color="#007DC6"/>
</radialGradient>
<radialGradient id="paint48_radial_1913_428" cx="0" cy="0" r="1" gradientUnits="userSpaceOnUse" gradientTransform="translate(526.138 202.199) scale(6.49988 6.49987)">
<stop offset="0.66" stop-color="#00D5FF"/>
<stop offset="1" stop-color="#007DC6"/>
</radialGradient>
<radialGradient id="paint49_radial_1913_428" cx="0" cy="0" r="1" gradientUnits="userSpaceOnUse" gradientTransform="translate(84.8565 142.821) scale(9.18461 9.18462)">
<stop offset="0.66" stop-color="#00D5FF"/>
<stop offset="1" stop-color="#007DC6"/>
</radialGradient>
<radialGradient id="paint50_radial_1913_428" cx="0" cy="0" r="1" gradientUnits="userSpaceOnUse" gradientTransform="translate(182.886 239.911) scale(5.73056 5.73055)">
<stop offset="0.66" stop-color="#00D5FF"/>
<stop offset="1" stop-color="#007DC6"/>
</radialGradient>
<radialGradient id="paint51_radial_1913_428" cx="0" cy="0" r="1" gradientUnits="userSpaceOnUse" gradientTransform="translate(614.519 390.397) scale(2.74754 2.74752)">
<stop offset="0.66" stop-color="#00D5FF"/>
<stop offset="1" stop-color="#007DC6"/>
</radialGradient>
<radialGradient id="paint52_radial_1913_428" cx="0" cy="0" r="1" gradientUnits="userSpaceOnUse" gradientTransform="translate(821.406 336.744) scale(6.49986 6.49988)">
<stop offset="0.66" stop-color="#00D5FF"/>
<stop offset="1" stop-color="#007DC6"/>
</radialGradient>
<radialGradient id="paint53_radial_1913_428" cx="0" cy="0" r="1" gradientUnits="userSpaceOnUse" gradientTransform="translate(418.56 228.732) scale(7.36339 7.36339)">
<stop offset="0.66" stop-color="#00D5FF"/>
<stop offset="1" stop-color="#007DC6"/>
</radialGradient>
<radialGradient id="paint54_radial_1913_428" cx="0" cy="0" r="1" gradientUnits="userSpaceOnUse" gradientTransform="translate(146.187 313.827) scale(7.36339 7.36339)">
<stop offset="0.66" stop-color="#00D5FF"/>
<stop offset="1" stop-color="#007DC6"/>
</radialGradient>
<radialGradient id="paint55_radial_1913_428" cx="0" cy="0" r="1" gradientUnits="userSpaceOnUse" gradientTransform="translate(371.445 391.763) scale(4.20766 4.20766)">
<stop offset="0.66" stop-color="#00D5FF"/>
<stop offset="1" stop-color="#007DC6"/>
</radialGradient>
<radialGradient id="paint56_radial_1913_428" cx="0" cy="0" r="1" gradientUnits="userSpaceOnUse" gradientTransform="translate(790.065 235.905) rotate(-45.4063) scale(17.047 0.84712)">
<stop stop-color="#FFFF89"/>
<stop offset="0.63" stop-color="#FFFFD5" stop-opacity="0.36"/>
<stop offset="1" stop-color="white" stop-opacity="0"/>
</radialGradient>
<radialGradient id="paint57_radial_1913_428" cx="0" cy="0" r="1" gradientUnits="userSpaceOnUse" gradientTransform="translate(788.383 234.301) rotate(-135.406) scale(17.047 0.847121)">
<stop stop-color="#FFFF89"/>
<stop offset="0.63" stop-color="#FFFFD5" stop-opacity="0.36"/>
<stop offset="1" stop-color="white" stop-opacity="0"/>
</radialGradient>
<radialGradient id="paint58_radial_1913_428" cx="0" cy="0" r="1" gradientUnits="userSpaceOnUse" gradientTransform="translate(788.554 235.683) rotate(-90.64) scale(26.1722 1.30859)">
<stop stop-color="#FFFF89"/>
<stop offset="0.63" stop-color="#FFFFD5" stop-opacity="0.36"/>
<stop offset="1" stop-color="white" stop-opacity="0"/>
</radialGradient>
<radialGradient id="paint59_radial_1913_428" cx="0" cy="0" r="1" gradientUnits="userSpaceOnUse" gradientTransform="translate(788.294 235.534) rotate(179.36) scale(37.2252 1.86126)">
<stop stop-color="#FFFF89"/>
<stop offset="0.63" stop-color="#FFFFD5" stop-opacity="0.36"/>
<stop offset="1" stop-color="white" stop-opacity="0"/>
</radialGradient>
<radialGradient id="paint60_radial_1913_428" cx="0" cy="0" r="1" gradientUnits="userSpaceOnUse" gradientTransform="translate(145.01 312.76) rotate(-45.4063) scale(17.047 0.84712)">
<stop stop-color="#FFFF89"/>
<stop offset="0.63" stop-color="#FFFFD5" stop-opacity="0.36"/>
<stop offset="1" stop-color="white" stop-opacity="0"/>
</radialGradient>
<radialGradient id="paint61_radial_1913_428" cx="0" cy="0" r="1" gradientUnits="userSpaceOnUse" gradientTransform="translate(149.942 313.937) rotate(-135.406) scale(17.047 0.847119)">
<stop stop-color="#FFFF89"/>
<stop offset="0.63" stop-color="#FFFFD5" stop-opacity="0.36"/>
<stop offset="1" stop-color="white" stop-opacity="0"/>
</radialGradient>
<radialGradient id="paint62_radial_1913_428" cx="0" cy="0" r="1" gradientUnits="userSpaceOnUse" gradientTransform="translate(145.39 313.251) rotate(-90.64) scale(26.1722 1.30861)">
<stop stop-color="#FFFF89"/>
<stop offset="0.63" stop-color="#FFFFD5" stop-opacity="0.36"/>
<stop offset="1" stop-color="white" stop-opacity="0"/>
</radialGradient>
<radialGradient id="paint63_radial_1913_428" cx="0" cy="0" r="1" gradientUnits="userSpaceOnUse" gradientTransform="translate(145.63 313.138) rotate(179.36) scale(37.2252 1.86126)">
<stop stop-color="#FFFF89"/>
<stop offset="0.63" stop-color="#FFFFD5" stop-opacity="0.36"/>
<stop offset="1" stop-color="white" stop-opacity="0"/>
</radialGradient>
<radialGradient id="paint64_radial_1913_428" cx="0" cy="0" r="1" gradientUnits="userSpaceOnUse" gradientTransform="translate(526.283 201.622) rotate(-45.4064) scale(22.2441 1.10538)">
<stop stop-color="#FFFF89"/>
<stop offset="0.63" stop-color="#FFFFD5" stop-opacity="0.36"/>
<stop offset="1" stop-color="white" stop-opacity="0"/>
</radialGradient>
<radialGradient id="paint65_radial_1913_428" cx="0" cy="0" r="1" gradientUnits="userSpaceOnUse" gradientTransform="translate(527.51 200.45) rotate(-135.406) scale(22.244 1.10538)">
<stop stop-color="#FFFF89"/>
<stop offset="0.63" stop-color="#FFFFD5" stop-opacity="0.36"/>
<stop offset="1" stop-color="white" stop-opacity="0"/>
</radialGradient>
<radialGradient id="paint66_radial_1913_428" cx="0" cy="0" r="1" gradientUnits="userSpaceOnUse" gradientTransform="translate(525.727 201.243) rotate(-90.64) scale(34.1479 1.70739)">
<stop stop-color="#FFFF89"/>
<stop offset="0.63" stop-color="#FFFFD5" stop-opacity="0.36"/>
<stop offset="1" stop-color="white" stop-opacity="0"/>
</radialGradient>
<radialGradient id="paint67_radial_1913_428" cx="0" cy="0" r="1" gradientUnits="userSpaceOnUse" gradientTransform="translate(525.665 201.065) rotate(179.36) scale(48.5607 2.42804)">
<stop stop-color="#FFFF89"/>
<stop offset="0.63" stop-color="#FFFFD5" stop-opacity="0.36"/>
<stop offset="1" stop-color="white" stop-opacity="0"/>
</radialGradient>
<radialGradient id="paint68_radial_1913_428" cx="0" cy="0" r="1" gradientUnits="userSpaceOnUse" gradientTransform="translate(803.782 20.625) rotate(-45.4064) scale(14.6363 0.727324)">
<stop stop-color="#FFFF89"/>
<stop offset="0.63" stop-color="#FFFFD5" stop-opacity="0.36"/>
<stop offset="1" stop-color="white" stop-opacity="0"/>
</radialGradient>
<radialGradient id="paint69_radial_1913_428" cx="0" cy="0" r="1" gradientUnits="userSpaceOnUse" gradientTransform="translate(802.609 16.671) rotate(-135.406) scale(14.6363 0.727325)">
<stop stop-color="#FFFF89"/>
<stop offset="0.63" stop-color="#FFFFD5" stop-opacity="0.36"/>
<stop offset="1" stop-color="white" stop-opacity="0"/>
</radialGradient>
<radialGradient id="paint70_radial_1913_428" cx="0" cy="0" r="1" gradientUnits="userSpaceOnUse" gradientTransform="translate(802.814 18.9764) rotate(-90.64) scale(22.467 1.12333)">
<stop stop-color="#FFFF89"/>
<stop offset="0.63" stop-color="#FFFFD5" stop-opacity="0.36"/>
<stop offset="1" stop-color="white" stop-opacity="0"/>
</radialGradient>
<radialGradient id="paint71_radial_1913_428" cx="0" cy="0" r="1" gradientUnits="userSpaceOnUse" gradientTransform="translate(802.545 18.66) rotate(179.36) scale(31.9499 1.59749)">
<stop stop-color="#FFFF89"/>
<stop offset="0.63" stop-color="#FFFFD5" stop-opacity="0.36"/>
<stop offset="1" stop-color="white" stop-opacity="0"/>
</radialGradient>
<radialGradient id="paint72_radial_1913_428" cx="0" cy="0" r="1" gradientUnits="userSpaceOnUse" gradientTransform="translate(686.014 297.305) rotate(-45.4064) scale(13.0396 0.647981)">
<stop stop-color="#FFFF89"/>
<stop offset="0.63" stop-color="#FFFFD5" stop-opacity="0.36"/>
<stop offset="1" stop-color="white" stop-opacity="0"/>
</radialGradient>
<radialGradient id="paint73_radial_1913_428" cx="0" cy="0" r="1" gradientUnits="userSpaceOnUse" gradientTransform="translate(685.267 296.668) rotate(-135.406) scale(13.0396 0.64798)">
<stop stop-color="#FFFF89"/>
<stop offset="0.63" stop-color="#FFFFD5" stop-opacity="0.36"/>
<stop offset="1" stop-color="white" stop-opacity="0"/>
</radialGradient>
<radialGradient id="paint74_radial_1913_428" cx="0" cy="0" r="1" gradientUnits="userSpaceOnUse" gradientTransform="translate(684.683 297.517) rotate(-90.64) scale(20.0178 1.00088)">
<stop stop-color="#FFFF89"/>
<stop offset="0.63" stop-color="#FFFFD5" stop-opacity="0.36"/>
<stop offset="1" stop-color="white" stop-opacity="0"/>
</radialGradient>
<radialGradient id="paint75_radial_1913_428" cx="0" cy="0" r="1" gradientUnits="userSpaceOnUse" gradientTransform="translate(684.51 297.417) rotate(179.36) scale(28.4488 1.42245)">
<stop stop-color="#FFFF89"/>
<stop offset="0.63" stop-color="#FFFFD5" stop-opacity="0.36"/>
<stop offset="1" stop-color="white" stop-opacity="0"/>
</radialGradient>
<radialGradient id="paint76_radial_1913_428" cx="0" cy="0" r="1" gradientUnits="userSpaceOnUse" gradientTransform="translate(147.181 10.6321) rotate(-45.4063) scale(25.1713 1.25084)">
<stop stop-color="#FFFF89"/>
<stop offset="0.63" stop-color="#FFFFD5" stop-opacity="0.36"/>
<stop offset="1" stop-color="white" stop-opacity="0"/>
</radialGradient>
<radialGradient id="paint77_radial_1913_428" cx="0" cy="0" r="1" gradientUnits="userSpaceOnUse" gradientTransform="translate(153.023 8.53594) rotate(-135.406) scale(25.1713 1.25084)">
<stop stop-color="#FFFF89"/>
<stop offset="0.63" stop-color="#FFFFD5" stop-opacity="0.36"/>
<stop offset="1" stop-color="white" stop-opacity="0"/>
</radialGradient>
<radialGradient id="paint78_radial_1913_428" cx="0" cy="0" r="1" gradientUnits="userSpaceOnUse" gradientTransform="translate(148.401 9.1068) rotate(-90.64) scale(38.6382 1.93191)">
<stop stop-color="#FFFF89"/>
<stop offset="0.63" stop-color="#FFFFD5" stop-opacity="0.36"/>
<stop offset="1" stop-color="white" stop-opacity="0"/>
</radialGradient>
<radialGradient id="paint79_radial_1913_428" cx="0" cy="0" r="1" gradientUnits="userSpaceOnUse" gradientTransform="translate(148.627 8.74274) rotate(179.36) scale(54.935 2.74674)">
<stop stop-color="#FFFF89"/>
<stop offset="0.63" stop-color="#FFFFD5" stop-opacity="0.36"/>
<stop offset="1" stop-color="white" stop-opacity="0"/>
</radialGradient>
<radialGradient id="paint80_radial_1913_428" cx="0" cy="0" r="1" gradientUnits="userSpaceOnUse" gradientTransform="translate(995.364 44.5224) scale(3.62673 3.62675)">
<stop offset="0.66" stop-color="#00D5FF"/>
<stop offset="1" stop-color="#007DC6"/>
</radialGradient>
<clipPath id="clip0_1913_428">
<rect width="1128" height="395" rx="20" fill="white"/>
</clipPath>
</defs>
</svg>
