<svg width="32" height="32" viewBox="0 0 32 32" fill="none" xmlns="http://www.w3.org/2000/svg">
<path d="M3 2C2.73478 2 2.48043 2.10536 2.29289 2.29289C2.10536 2.48043 2 2.73478 2 3C2 3.26522 2.10536 3.51957 2.29289 3.70711C2.48043 3.89464 2.73478 4 3 4H29C29.2652 4 29.5196 3.89464 29.7071 3.70711C29.8946 3.51957 30 3.26522 30 3C30 2.73478 29.8946 2.48043 29.7071 2.29289C29.5196 2.10536 29.2652 2 29 2H3ZM3 16C2.73478 16 2.48043 16.1054 2.29289 16.2929C2.10536 16.4804 2 16.7348 2 17C2 17.2652 2.10536 17.5196 2.29289 17.7071C2.48043 17.8946 2.73478 18 3 18H29C29.2652 18 29.5196 17.8946 29.7071 17.7071C29.8946 17.5196 30 17.2652 30 17C30 16.7348 29.8946 16.4804 29.7071 16.2929C29.5196 16.1054 29.2652 16 29 16H3ZM19 28C19.7956 28 20.5587 27.6839 21.1213 27.1213C21.6839 26.5587 22 25.7956 22 25V23C22 22.2044 21.6839 21.4413 21.1213 20.8787C20.5587 20.3161 19.7956 20 19 20H13C12.2044 20 11.4413 20.3161 10.8787 20.8787C10.3161 21.4413 10 22.2044 10 23V25C10 25.7956 10.3161 26.5587 10.8787 27.1213C11.4413 27.6839 12.2044 28 13 28H19ZM23 14C23.7956 14 24.5587 13.6839 25.1213 13.1213C25.6839 12.5587 26 11.7956 26 11V9C26 8.20435 25.6839 7.44129 25.1213 6.87868C24.5587 6.31607 23.7956 6 23 6H9C8.20435 6 7.44129 6.31607 6.87868 6.87868C6.31607 7.44129 6 8.20435 6 9V11C6 11.7956 6.31607 12.5587 6.87868 13.1213C7.44129 13.6839 8.20435 14 9 14H23Z" fill="white"/>
</svg>
