<svg width="32" height="32" viewBox="0 0 32 32" fill="none" xmlns="http://www.w3.org/2000/svg">
<path d="M16.0026 29.3332C12.9137 28.5554 10.3635 26.7829 8.35194 24.0158C6.34038 21.2487 5.33505 18.1767 5.33594 14.7998V6.6665L16.0026 2.6665L26.6693 6.6665V14.7998C26.6693 18.1776 25.6635 21.2501 23.6519 24.0172C21.6404 26.7843 19.0906 28.5563 16.0026 29.3332ZM16.0026 26.5332C18.1582 25.8665 19.9582 24.5496 21.4026 22.5825C22.847 20.6154 23.6915 18.4212 23.9359 15.9998H16.0026V5.49984L8.0026 8.49984V15.3998C8.0026 15.5554 8.02483 15.7554 8.06927 15.9998H16.0026V26.5332Z" fill="white"/>
</svg>
