<svg width="32" height="32" viewBox="0 0 32 32" fill="none" xmlns="http://www.w3.org/2000/svg">
<mask id="mask0_2058_1212" style="mask-type:luminance" maskUnits="userSpaceOnUse" x="1" y="1" width="30" height="30">
<path d="M22.6794 4.45985C20.6498 3.28184 18.3441 2.66304 15.9974 2.66652C8.6334 2.66652 2.66406 8.63585 2.66406 15.9999C2.66406 23.3638 8.6334 29.3332 15.9974 29.3332C23.3614 29.3332 29.3307 23.3638 29.3307 15.9999C29.3307 13.5819 28.6867 11.3132 27.5614 9.35852" stroke="white" stroke-width="2" stroke-linecap="round" stroke-linejoin="round"/>
<path d="M21.2977 10.6997C21.2977 10.6997 19.039 16.7297 17.9977 17.771C17.4976 18.2712 16.8193 18.5521 16.112 18.5521C15.4048 18.5521 14.7265 18.2712 14.2264 17.771C13.7263 17.2709 13.4453 16.5926 13.4453 15.8854C13.4453 15.1781 13.7263 14.4998 14.2264 13.9997C15.2677 12.9584 21.2977 10.6997 21.2977 10.6997Z" fill="#555555" stroke="white" stroke-width="2" stroke-linejoin="round"/>
</mask>
<g mask="url(#mask0_2058_1212)">
<path d="M0 0H32V32H0V0Z" fill="white"/>
</g>
</svg>
